<?xml version="1.0" encoding="UTF-8" standalone="no"?>
<!-- Created with Inkscape (http://www.inkscape.org/) -->

<svg
   width="100mm"
   height="100mm"
   viewBox="0 0 100 100"
   version="1.1"
   id="svg5"
   xml:space="preserve"
   inkscape:version="1.2.1 (9c6d41e410, 2022-07-14)"
   sodipodi:docname="sitelogo-xxx.svg"
   xmlns:inkscape="http://www.inkscape.org/namespaces/inkscape"
   xmlns:sodipodi="http://sodipodi.sourceforge.net/DTD/sodipodi-0.dtd"
   xmlns="http://www.w3.org/2000/svg"
   xmlns:svg="http://www.w3.org/2000/svg"><sodipodi:namedview
     id="namedview7"
     pagecolor="#ffffff"
     bordercolor="#666666"
     borderopacity="1.0"
     inkscape:showpageshadow="2"
     inkscape:pageopacity="0.0"
     inkscape:pagecheckerboard="0"
     inkscape:deskcolor="#d1d1d1"
     inkscape:document-units="mm"
     showgrid="false"
     inkscape:zoom="0.69753788"
     inkscape:cx="-35.123541"
     inkscape:cy="-20.787402"
     inkscape:window-width="1920"
     inkscape:window-height="1002"
     inkscape:window-x="-8"
     inkscape:window-y="-8"
     inkscape:window-maximized="1"
     inkscape:current-layer="layer2" /><defs
     id="defs2" /><g
     inkscape:groupmode="layer"
     id="layer2"
     inkscape:label="pohja 1"
     style="fill:#1a1a1a"
     transform="translate(-53.103447,-107.34483)"><rect
       style="fill:#1a1a1a;fill-opacity:1;stroke-width:0.1;-inkscape-stroke:none;stop-color:#000000"
       id="rect1024"
       width="100"
       height="100"
       x="53.103447"
       y="107.34483"
       ry="0" /><g
       id="g1043"
       transform="translate(-0.28952612,8.7765852)"><path
         id="path357"
         style="fill:#ffffff;stroke:none;stroke-width:0.1;stroke-opacity:1;-inkscape-stroke:none;stop-color:#000000"
         d="m 115.11132,118.72867 c -4.94564,-0.0764 -6.79582,4.60898 -4.13825,5.65495 2.74329,1.07971 2.77933,-3.47997 6.30298,-1.341 2.56338,1.55607 -2.61483,7.57731 -2.61483,7.57731 l 3.21841,8.71678 c 0,0 -10.65668,10.95077 -11.46132,16.71733 -2.60637,-1.25066 -4.36356,-0.0884 -4.36356,-0.0884 l -10.325982,-25.7483 5.498372,-1.0728 c 0,0 2.145962,-2.81636 -0.133842,-3.35276 -2.279806,-0.53643 -13.114573,-0.29405 -13.947469,-0.13385 -4.028768,0.77489 -3.761361,3.5816 4.28501,5.7273 3.305001,6.98191 4.029728,8.6217 4.029728,8.6217 l -3.280936,5.15162 c 0,0 -15.024396,-11.55517 -27.093954,1.98954 -4.643829,4.50678 16.914352,5.52892 15.455387,12.20391 -1.139901,3.48676 -3.520264,6.53783 3.855579,6.94015 15.423046,0.56569 30.104427,7.63409 29.704647,-3.08457 -0.39977,-10.71867 9.2537,-19.11046 9.2537,-19.11046 0,0 6.35161,18.42097 10.45983,19.37866 4.10819,0.95768 2.97999,-2.43554 1.27434,-4.09019 -1.70566,-1.65466 -11.71077,-24.83652 -10.32651,-24.87703 0.93833,-0.0274 4.82813,0 4.82813,0 l 3.28559,7.91269 9.65574,0.2682 c 2.17765,-4.02682 3.70049,-7.21592 4.62659,-11.60032 0,0 -0.0671,-5.83391 -2.48098,-2.07895 -1.03069,1.60329 -3.44261,9.69302 -12.87415,2.41433 -2.85423,-0.10701 -6.13734,-0.27326 -8.44858,-0.33538 0,0 6.70507,-11.53984 -3.75533,-12.33775 -0.16593,-0.0127 -0.3288,-0.0203 -0.48834,-0.0227 z m -21.493262,25.80463 4.172355,11.66388 -13.086539,1.13792 z m 10.381282,14.6513 a 3.0173953,3.0844483 0 0 1 3.01738,3.08405 3.0173953,3.0844483 0 0 1 -3.01738,3.08456 3.0173953,3.0844483 0 0 1 -3.01739,-3.08456 3.0173953,3.0844483 0 0 1 3.01739,-3.08405 z" /><path
         id="path1201"
         style="font-variation-settings:normal;opacity:1;vector-effect:none;fill:#ffffff;fill-opacity:1;stroke:none;stroke-width:0.1;stroke-linecap:butt;stroke-linejoin:miter;stroke-miterlimit:4;stroke-dasharray:none;stroke-dashoffset:0;stroke-opacity:1;-inkscape-stroke:none;stop-color:#000000;stop-opacity:1"
         d="m 64.937122,154.44535 a 15.95,15.95 0 0 0 -2.161109,8.01347 15.95,15.95 0 0 0 15.949931,15.94993 15.95,15.95 0 0 0 13.712341,-7.81503 l -3.805969,-0.78341 a 12.346552,12.346552 0 0 1 -9.906372,4.99504 12.346552,12.346552 0 0 1 -12.346533,-12.34653 12.346552,12.346552 0 0 1 1.90841,-6.57221 z" /><path
         id="circle1203"
         style="font-variation-settings:normal;opacity:1;vector-effect:none;fill:#ffffff;fill-opacity:1;stroke:none;stroke-width:0.1;stroke-linecap:butt;stroke-linejoin:miter;stroke-miterlimit:4;stroke-dasharray:none;stroke-dashoffset:0;stroke-opacity:1;-inkscape-stroke:none;stop-color:#000000;stop-opacity:1"
         d="m 130.40703,145.74976 a 15.95,15.95 0 0 0 -3.14245,0.32298 l 1.26608,3.43338 a 12.346552,12.346552 0 0 1 1.87637,-0.15245 12.346552,12.346552 0 0 1 12.34653,12.34654 12.346552,12.346552 0 0 1 -12.34653,12.34653 12.346552,12.346552 0 0 1 -12.34654,-12.34653 12.346552,12.346552 0 0 1 2.63964,-7.61142 l -1.69602,-3.52692 a 15.95,15.95 0 0 0 -4.54701,11.13834 15.95,15.95 0 0 0 15.94993,15.94993 15.95,15.95 0 0 0 15.94993,-15.94993 15.95,15.95 0 0 0 -15.94993,-15.95045 z" /></g></g></svg>
