<?xml version="1.0" encoding="UTF-8" standalone="no"?>
<!-- Created with Inkscape (http://www.inkscape.org/) -->

<svg
   width="194.35612mm"
   height="12.64049mm"
   viewBox="0 0 194.35612 12.64049"
   version="1.1"
   id="svg5"
   inkscape:version="1.2.1 (9c6d41e410, 2022-07-14)"
   sodipodi:docname="text-logo.svg"
   xmlns:inkscape="http://www.inkscape.org/namespaces/inkscape"
   xmlns:sodipodi="http://sodipodi.sourceforge.net/DTD/sodipodi-0.dtd"
   xmlns="http://www.w3.org/2000/svg"
   xmlns:svg="http://www.w3.org/2000/svg">
  <sodipodi:namedview
     id="namedview7"
     pagecolor="#ffffff"
     bordercolor="#666666"
     borderopacity="1.0"
     inkscape:showpageshadow="2"
     inkscape:pageopacity="0.0"
     inkscape:pagecheckerboard="0"
     inkscape:deskcolor="#d1d1d1"
     inkscape:document-units="mm"
     showgrid="false"
     inkscape:zoom="0.69753788"
     inkscape:cx="192.10426"
     inkscape:cy="172.75048"
     inkscape:window-width="1920"
     inkscape:window-height="1002"
     inkscape:window-x="-8"
     inkscape:window-y="-8"
     inkscape:window-maximized="1"
     inkscape:current-layer="layer1" />
  <defs
     id="defs2" />
  <g
     inkscape:label="Layer 1"
     inkscape:groupmode="layer"
     id="layer1"
     transform="translate(-10.845982,-102.82334)">
    <path
       d="m 21.689264,107.325 -0.01711,-2.40487 -0.01712,-1.06978 q 0,-0.41934 0.06846,-0.56483 0.06846,-0.14541 0.282422,-0.14541 0.325211,0 0.325211,0.52204 l -0.0086,0.58196 -0.01712,1.89992 -0.02567,3.0553 0.02567,3.18365 0.01712,2.23371 q 0,0.30809 -0.06846,0.41935 -0.0599,0.11129 -0.248188,0.11129 -0.19684,0 -0.273863,-0.1199 -0.06846,-0.11974 -0.06846,-0.43648 l 0.0086,-0.72745 0.02567,-4.29621 v -1.59183 l -0.325212,-0.008 -1.668853,-0.0343 -3.671478,0.0427 0.0086,2.36206 0.05136,4.64712 h -5.246191 l 0.04279,-7.41998 -0.01713,-1.95984 -0.0086,-1.80578 -0.01713,-0.49638 h 5.246192 l -0.0086,0.44504 -0.04279,3.57734 q 0.872939,0.06 2.772864,0.06 1.745878,0 2.875562,-0.06 z"
       id="path434"
       style="font-size:10.5833px;line-height:1.25;font-family:Broadway;-inkscape-font-specification:'Broadway, Normal';letter-spacing:0.0105833px;word-spacing:0px;stroke-width:0.264582" />
    <path
       d="m 29.357843,107.05113 q -0.01713,0.39367 -0.01713,0.95853 v 0.51348 l 0.0599,5.90518 2.901237,-0.0343 2.053974,-0.0257 q 0.504935,0 0.504935,0.30811 0,0.25675 -0.256747,0.29098 -0.0599,0.008 -0.710332,0.0171 h -9.722141 l 0.0086,-0.44502 0.0086,-2.85845 0.03423,-3.06385 -0.06846,-5.31466 h 9.071717 q 0.607633,0 0.693216,0.0257 0.196839,0.0513 0.196839,0.29097 0,0.29954 -0.376563,0.29954 h -0.0599 l -4.287669,-0.0599 -0.03423,2.65304 0.932845,0.008 2.995378,-0.0513 0.658982,-0.008 q 0.359447,0 0.470703,0.06 0.119821,0.06 0.119821,0.23963 0,0.33377 -0.564844,0.33377 l -0.676099,-0.0171 z"
       id="path436"
       style="font-size:10.5833px;line-height:1.25;font-family:Broadway;-inkscape-font-specification:'Broadway, Normal';letter-spacing:0.0105833px;word-spacing:0px;stroke-width:0.264582" />
    <path
       d="m 41.1686,103.30263 -0.03423,1.78867 -0.03423,2.84989 0.0086,2.07964 0.03423,4.40749 0.616192,0.008 3.662919,-0.0513 0.667541,-0.008 q 0.504936,0 0.504936,0.29955 0,0.26529 -0.273864,0.29098 -0.0599,0.008 -0.393678,0.017 H 35.905347 l 0.02567,-3.25212 0.01713,-1.99406 0.01712,-2.25938 -0.03423,-3.44039 0.0086,-0.73602 z"
       id="path438"
       style="font-size:10.5833px;line-height:1.25;font-family:Broadway;-inkscape-font-specification:'Broadway, Normal';letter-spacing:0.0105833px;word-spacing:0px;stroke-width:0.264582" />
    <path
       d="m 47.211115,112.99909 q 0.154053,0 0.359445,0.23108 0.641867,0.70176 1.566155,1.12969 0.932846,0.41935 1.840019,0.41935 1.001311,0 1.001311,-0.60764 0,-0.38511 -0.350888,-0.86438 -0.350885,-0.48782 -1.67741,-1.91704 -1.668854,-1.80579 -2.225138,-2.67873 -0.736007,-1.15536 -0.736007,-2.19946 0,-1.57471 1.403547,-2.57602 1.377874,-0.9842 3.397615,-0.9842 1.412108,0 2.593141,0.5734 0.445029,0.22252 0.761683,0.5135 0.325212,0.29098 0.325212,0.48781 0,0.0941 -0.09413,0.17972 -0.08559,0.077 -0.179722,0.077 -0.14549,0 -0.427912,-0.26529 -0.462143,-0.43647 -1.215268,-0.71891 -0.753123,-0.29096 -1.44634,-0.29096 -0.42791,0 -0.701773,0.18827 -0.265304,0.17972 -0.265304,0.4707 0,0.3509 0.33377,0.85583 0.333771,0.50494 1.129685,1.34363 2.516117,2.67873 3.080959,3.61157 0.590519,0.9842 0.590519,1.89992 0,0.77881 -0.419353,1.47203 -0.419354,0.69321 -1.163918,1.13824 -1.420665,0.84727 -3.466081,0.84727 -1.882809,0 -3.312032,-0.97564 -1.001312,-0.68466 -1.001312,-1.06979 0,-0.11129 0.08559,-0.19683 0.09413,-0.0941 0.213956,-0.0941 z"
       id="path440"
       style="font-size:10.5833px;line-height:1.25;font-family:Broadway;-inkscape-font-specification:'Broadway, Normal';letter-spacing:0.0105833px;word-spacing:0px;stroke-width:0.264582" />
    <path
       d="m 63.044238,103.30263 v 0.59908 l -0.04279,4.68991 0.03423,6.39298 h -5.229074 l 0.0599,-6.99207 -0.0599,-4.27054 0.0086,-0.41936 z"
       id="path442"
       style="font-size:10.5833px;line-height:1.25;font-family:Broadway;-inkscape-font-specification:'Broadway, Normal';letter-spacing:0.0105833px;word-spacing:0px;stroke-width:0.264582" />
    <path
       d="m 75.539652,108.98529 v -1.42923 l -0.01712,-2.26793 -0.0086,-1.03554 -0.0086,-0.65042 q 0,-0.46214 0.316654,-0.46214 0.188281,0 0.256747,0.11129 0.07703,0.10268 0.07703,0.40224 v 0.11974 q -0.0086,0.17972 -0.0086,0.59052 l -0.03423,2.88412 -0.02567,2.6445 0.02567,2.7814 0.03423,2.78999 q -1.762993,-1.104 -5.160608,-3.04672 -3.397614,-1.95128 -5.502937,-3.06386 l 0.0086,0.41937 0.08559,4.41603 0.0086,0.59052 q 0,0.36801 -0.342328,0.36801 -0.350888,0 -0.350888,-0.4536 l 0.0086,-0.59907 0.0086,-0.96707 0.03423,-4.39037 -0.06846,-5.91373 q 3.466078,2.14811 10.663545,6.16192 z"
       id="path444"
       style="font-size:10.5833px;line-height:1.25;font-family:Broadway;-inkscape-font-specification:'Broadway, Normal';letter-spacing:0.0105833px;word-spacing:0px;stroke-width:0.264582" />
    <path
       d="m 85.2023,105.75884 1.275176,2.58457 q 1.104011,2.22515 1.9256,3.78275 0.821589,1.55759 1.223825,2.17378 0.24819,0.39368 0.24819,0.52206 0,0.32521 -0.445029,0.32521 -0.196838,0 -0.290979,-0.12835 -0.08559,-0.11973 -0.445028,-0.86438 l -0.53061,-1.104 -0.838705,-1.73732 -0.778798,-1.60894 -0.573401,-1.17249 -1.240943,-2.52467 -1.566155,0.9414 -0.0086,1.26662 v 0.84727 l 0.04279,5.49437 0.0086,0.42791 h -5.237631 l 0.05136,-7.30872 -0.01712,-2.07964 -0.03423,-1.82291 v -0.4707 h 5.237631 l -0.03423,1.36931 -0.0086,1.6603 1.463455,-0.87294 q 1.240943,-0.736 2.208022,-1.38643 0.975638,-0.64186 1.249501,-0.78735 0.273864,-0.14541 0.513493,-0.14541 0.453585,0 0.453585,0.28242 0,0.14541 -0.128366,0.24819 -0.11982,0.0941 -0.573401,0.3081 -0.539167,0.25674 -2.387744,1.33507 z"
       id="path446"
       style="font-size:10.5833px;line-height:1.25;font-family:Broadway;-inkscape-font-specification:'Broadway, Normal';letter-spacing:0.0105833px;word-spacing:0px;stroke-width:0.264582" />
    <path
       d="m 96.07165,103.30263 v 0.59908 l -0.04279,4.68991 0.03423,6.39298 h -5.229074 l 0.0599,-6.99207 -0.0599,-4.27054 0.0086,-0.41936 z"
       id="path448"
       style="font-size:10.5833px;line-height:1.25;font-family:Broadway;-inkscape-font-specification:'Broadway, Normal';letter-spacing:0.0105833px;word-spacing:0px;stroke-width:0.264582" />
    <path
       d="m 107.48058,103.5337 -0.0428,6.06779 0.0428,5.15205 q 0.44503,0.06 0.73601,0.06 0.83871,0 1.7202,-0.29955 0.8815,-0.29952 1.5576,-0.81302 0.43647,-0.33377 0.89861,-0.89005 0.47071,-0.55629 0.75313,-1.0869 0.16259,-0.3081 0.35088,-0.3081 0.28243,0 0.28243,0.23964 0,0.25675 -0.42792,0.87293 -0.41935,0.60764 -0.92428,1.09545 -1.09546,1.05267 -2.57603,1.46345 -0.89005,0.24821 -1.71164,0.24821 -1.19815,0 -2.40486,-0.5135 -1.93416,-0.81304 -2.94403,-2.57603 -0.83871,-1.46345 -0.83871,-3.10664 0,-1.6774 0.87294,-3.16654 0.93285,-1.58327 2.63593,-2.42198 1.24095,-0.59907 2.67873,-0.59907 2.46476,0 4.26199,1.66886 0.85582,0.79592 0.85582,1.1468 0,0.0941 -0.0856,0.17116 -0.0856,0.077 -0.18828,0.077 -0.17117,0 -0.4108,-0.33378 -0.73601,-1.01841 -1.94272,-1.60894 -1.2067,-0.59906 -2.55035,-0.59906 -0.31665,0 -0.59907,0.06 z"
       id="path450"
       style="font-size:10.5833px;line-height:1.25;font-family:Broadway;-inkscape-font-specification:'Broadway, Normal';letter-spacing:0.0105833px;word-spacing:0px;stroke-width:0.264582" />
    <path
       d="m 120.10437,103.30263 v 0.59908 l -0.0428,4.68991 0.0342,6.39298 h -5.22907 l 0.0599,-6.99207 -0.0599,-4.27054 0.009,-0.41936 z"
       id="path452"
       style="font-size:10.5833px;line-height:1.25;font-family:Broadway;-inkscape-font-specification:'Broadway, Normal';letter-spacing:0.0105833px;word-spacing:0px;stroke-width:0.264582" />
    <path
       d="m 129.83548,103.87602 -0.0428,2.67873 -0.0257,2.5418 0.0257,5.88805 h -5.22052 l 0.0513,-6.82091 -0.0257,-2.31926 -0.0257,-1.96841 -1.12968,0.0257 -1.6175,0.0343 -0.23963,0.008 q -0.4108,0 -0.4108,-0.30809 0,-0.27386 0.23963,-0.30809 0.0685,-0.0171 0.41935,-0.0257 h 10.50094 q 0.54773,0.008 0.65043,0.0513 0.17116,0.0684 0.17116,0.29098 0,0.29098 -0.43647,0.29098 l -0.74456,-0.0257 -1.96839,-0.0343 z"
       id="path454"
       style="font-size:10.5833px;line-height:1.25;font-family:Broadway;-inkscape-font-specification:'Broadway, Normal';letter-spacing:0.0105833px;word-spacing:0px;stroke-width:0.264582" />
    <path
       d="m 142.94709,107.76147 2.72153,-3.97958 q 0.27385,-0.43647 0.37655,-0.53917 0.10268,-0.10268 0.26531,-0.10268 0.14557,0 0.23962,0.077 0.10268,0.077 0.10268,0.18827 0,0.11129 -0.10268,0.26531 -0.0684,0.11129 -0.17116,0.23963 l -0.27385,0.368 -6.95785,9.78206 -0.28242,0.38511 q -0.368,0.5135 -0.4707,0.60763 -0.0941,0.0941 -0.2653,0.0941 -0.27387,0 -0.27387,-0.23964 0,-0.12835 0.24819,-0.41935 l 1.95127,-2.65304 -0.23962,-0.32521 q -2.6017,-3.50032 -3.68004,-4.87819 -1.06978,-1.37788 -2.72151,-3.32916 h 6.2047 z"
       id="path456"
       style="font-size:10.5833px;line-height:1.25;font-family:Broadway;-inkscape-font-specification:'Broadway, Normal';letter-spacing:0.0105833px;word-spacing:0px;stroke-width:0.264582" />
    <path
       d="m 161.31385,109.90101 q 0.6162,0.44504 0.91574,0.97564 0.30809,0.52206 0.30809,1.12969 0,0.9842 -0.76167,1.81435 -0.93286,1.02698 -2.80711,1.11257 -1.03554,0.0513 -2.90979,0.0513 h -4.23631 l 0.008,-0.40224 0.0171,-1.6603 0.0257,-3.26923 -0.0343,-3.56022 -0.0171,-2.78998 h 4.58719 q 1.72022,0 2.36208,0.06 0.65043,0.0513 1.33508,0.26529 0.72745,0.23108 1.36076,0.6761 0.63331,0.44503 0.9842,0.97563 0.54773,0.83015 0.54773,1.85715 0,0.92428 -0.4536,1.66886 -0.45358,0.74455 -1.23239,1.09544 z m -0.6932,0.22252 q -0.36801,0.077 -0.68466,0.077 -0.67611,0 -1.09545,-0.22252 -0.41081,-0.22251 -0.41081,-0.58196 0,-0.19683 0.13697,-0.19683 0.10268,0 0.28241,0.0856 0.59051,0.29955 1.28373,0.29955 1.25806,0 1.89992,-0.99275 0.4108,-0.62475 0.4108,-1.42923 0,-1.22383 -0.94997,-2.09677 -0.67609,-0.6333 -1.6175,-0.91572 -0.93284,-0.28242 -2.34495,-0.28242 h -0.4707 l -0.0513,5.13493 0.0513,5.41735 0.77024,0.008 q 1.27518,0 1.98551,-0.13696 0.71033,-0.14557 1.18103,-0.48782 0.97564,-0.71889 0.97564,-1.81435 0,-0.55628 -0.34232,-1.01842 -0.33378,-0.4707 -1.00987,-0.84727 z"
       id="path458"
       style="font-size:10.5833px;line-height:1.25;font-family:Broadway;-inkscape-font-specification:'Broadway, Normal';letter-spacing:0.0105833px;word-spacing:0px;stroke-width:0.264582" />
    <path
       d="m 169.63287,103.30263 v 0.59908 l -0.0427,4.68991 0.0343,6.39298 h -5.22908 l 0.0599,-6.99207 -0.0599,-4.27054 0.008,-0.41936 z"
       id="path460"
       style="font-size:10.5833px;line-height:1.25;font-family:Broadway;-inkscape-font-specification:'Broadway, Normal';letter-spacing:0.0105833px;word-spacing:0px;stroke-width:0.264582" />
    <path
       d="m 178.86759,105.75884 1.27517,2.58457 q 1.10402,2.22515 1.9256,3.78275 0.82159,1.55759 1.22383,2.17378 0.24819,0.39368 0.24819,0.52206 0,0.32521 -0.44504,0.32521 -0.19683,0 -0.29096,-0.12835 -0.0856,-0.11973 -0.44504,-0.86438 l -0.5306,-1.104 -0.83871,-1.73732 -0.77881,-1.60894 -0.5734,-1.17249 -1.24093,-2.52467 -1.56616,0.9414 -0.008,1.26662 v 0.84727 l 0.0427,5.49437 0.008,0.42791 h -5.23764 l 0.0513,-7.30872 -0.0171,-2.07964 -0.0343,-1.82291 v -0.4707 h 5.23764 l -0.0343,1.36931 -0.008,1.6603 1.46347,-0.87294 q 1.24093,-0.736 2.20801,-1.38643 0.97564,-0.64186 1.24951,-0.78735 0.27386,-0.14541 0.5135,-0.14541 0.45358,0 0.45358,0.28242 0,0.14541 -0.12835,0.24819 -0.11974,0.0941 -0.5734,0.3081 -0.53917,0.25674 -2.38773,1.33507 z"
       id="path462"
       style="font-size:10.5833px;line-height:1.25;font-family:Broadway;-inkscape-font-specification:'Broadway, Normal';letter-spacing:0.0105833px;word-spacing:0px;stroke-width:0.264582" />
    <path
       d="m 189.70272,107.05113 q -0.0171,0.39367 -0.0171,0.95853 v 0.51348 l 0.06,5.90518 2.90124,-0.0343 2.05398,-0.0257 q 0.50493,0 0.50493,0.30811 0,0.25675 -0.25675,0.29098 -0.0599,0.008 -0.71033,0.0171 h -9.72215 l 0.008,-0.44502 0.008,-2.85845 0.0343,-3.06385 -0.0684,-5.31466 h 9.07171 q 0.60765,0 0.69322,0.0257 0.19684,0.0513 0.19684,0.29097 0,0.29954 -0.37657,0.29954 h -0.06 l -4.28766,-0.0599 -0.0343,2.65304 0.93285,0.008 2.99538,-0.0513 0.65897,-0.008 q 0.35944,0 0.4707,0.06 0.1199,0.06 0.1199,0.23963 0,0.33377 -0.56483,0.33377 l -0.67612,-0.0171 z"
       id="path464"
       style="font-size:10.5833px;line-height:1.25;font-family:Broadway;-inkscape-font-specification:'Broadway, Normal';letter-spacing:0.0105833px;word-spacing:0px;stroke-width:0.264582" />
    <path
       d="m 196.13891,112.99909 q 0.15402,0 0.35945,0.23108 0.64186,0.70176 1.56614,1.12969 0.93286,0.41935 1.84002,0.41935 1.00133,0 1.00133,-0.60764 0,-0.38511 -0.3509,-0.86438 -0.35089,-0.48782 -1.67741,-1.91704 -1.66886,-1.80579 -2.22513,-2.67873 -0.73601,-1.15536 -0.73601,-2.19946 0,-1.57471 1.40354,-2.57602 1.37788,-0.9842 3.39762,-0.9842 1.41211,0 2.59314,0.5734 0.44503,0.22252 0.76168,0.5135 0.32522,0.29098 0.32522,0.48781 0,0.0941 -0.0941,0.17972 -0.0856,0.077 -0.17972,0.077 -0.14541,0 -0.42791,-0.26529 -0.46214,-0.43647 -1.21526,-0.71891 -0.75313,-0.29096 -1.44635,-0.29096 -0.4279,0 -0.70176,0.18827 -0.26531,0.17972 -0.26531,0.4707 0,0.3509 0.33377,0.85583 0.33376,0.50494 1.12968,1.34363 2.51613,2.67873 3.08096,3.61157 0.59051,0.9842 0.59051,1.89992 0,0.77881 -0.41934,1.47203 -0.41935,0.69321 -1.16393,1.13824 -1.42065,0.84727 -3.46606,0.84727 -1.88282,0 -3.31205,-0.97564 -1.00131,-0.68466 -1.00131,-1.06979 0,-0.11129 0.0856,-0.19683 0.0941,-0.0941 0.21396,-0.0941 z"
       id="path466"
       style="font-size:10.5833px;line-height:1.25;font-family:Broadway;-inkscape-font-specification:'Broadway, Normal';letter-spacing:0.0105833px;word-spacing:0px;stroke-width:0.264582" />
  </g>
</svg>
